<?xml version="1.0" standalone="no"?><!DOCTYPE svg PUBLIC "-//W3C//DTD SVG 1.1//EN" "http://www.w3.org/Graphics/SVG/1.1/DTD/svg11.dtd"><svg t="1501656529225" class="icon" style="" viewBox="0 0 1024 1024" version="1.1" xmlns="http://www.w3.org/2000/svg" p-id="10630" xmlns:xlink="http://www.w3.org/1999/xlink" width="16" height="16"><defs><style type="text/css"></style></defs><path d="M269.76 86.912c59.776 0 113.92 23.616 153.088 61.824C423.232 149.312 423.68 149.696 424.128 150.208c38.336 38.08 62.08 90.304 62.08 147.904l0 187.968c0 12.8-10.688 23.232-23.872 23.232L269.76 509.312c-59.712 0-113.792-23.68-152.96-61.888l0-0.064L116.672 447.424c-39.168-38.208-63.36-91.008-63.36-149.312 0-58.304 24.192-111.104 63.36-149.312C155.84 110.592 210.048 86.912 269.76 86.912L269.76 86.912 269.76 86.912zM389.056 181.696C358.528 151.936 316.352 133.504 269.76 133.504c-46.656 0-88.768 18.432-119.36 48.192C119.936 211.456 101.056 252.608 101.056 298.112S119.936 384.704 150.4 414.464l0 0.064c30.592 29.76 72.704 48.128 119.36 48.128l168.704 0L438.464 298.112c0-44.928-18.368-85.568-48.192-115.328L389.056 181.696 389.056 181.696zM688.64 606.144c-13.248 0-23.872-10.368-23.872-23.232 0-12.8 10.624-23.232 23.872-23.232l65.6 0c59.84 0 113.856 23.616 153.088 61.824 0.448 0.512 0.896 0.896 1.344 1.344 38.4 38.144 62.08 90.368 62.08 147.904 0 58.24-24.192 110.976-63.36 149.248l-0.128 0.128c-39.104 38.272-93.184 61.76-152.96 61.76s-113.728-23.488-152.96-61.76l-0.064-0.128 0 0.128c-39.232-38.272-63.424-91.008-63.424-149.376L537.856 582.848c0-12.8 10.688-23.232 23.872-23.232 13.184 0 23.936 10.432 23.936 23.232l0 187.904c0 45.504 18.88 86.656 49.408 116.352l0 0.128c30.528 29.76 72.64 48.128 119.232 48.128s88.896-18.368 119.36-48.128c30.464-29.76 49.344-70.976 49.344-116.48 0-44.864-18.368-85.504-48.192-115.264l-1.216-1.152c-30.528-29.76-72.704-48.256-119.296-48.256L688.64 606.08 688.64 606.144zM269.76 935.36c46.592 0 88.832-18.368 119.36-48.128 30.464-29.76 49.344-70.976 49.344-116.48L438.464 606.144 269.76 606.144c-46.656 0-88.768 18.496-119.36 48.256-30.528 29.76-49.344 70.976-49.344 116.352 0 45.504 18.816 86.656 49.344 116.352l1.152 1.28C182.016 917.504 223.744 935.36 269.76 935.36L269.76 935.36 269.76 935.36zM422.656 920.128c-39.168 38.272-93.248 61.76-152.96 61.76-59.008 0-112.576-23.104-151.616-60.48-0.512-0.384-0.96-0.896-1.472-1.28-39.168-38.272-63.36-91.008-63.36-149.376 0-58.24 24.192-111.104 63.36-149.248 39.168-38.272 93.312-61.824 153.088-61.824l192.576 0c13.184 0 23.872 10.432 23.872 23.232l0 187.904c0 58.24-24.192 110.976-63.36 149.248L422.656 920.128 422.656 920.128zM754.24 133.504c-46.656 0-88.768 18.432-119.232 48.192C604.416 211.456 585.536 252.608 585.536 298.112l0 164.544 168.704 0c46.656 0 88.896-18.368 119.36-48.128 30.464-29.76 49.344-70.976 49.344-116.416s-18.88-86.656-49.344-116.416l-0.064 0C843.072 151.936 800.896 133.504 754.24 133.504L754.24 133.504 754.24 133.504zM601.28 148.8c39.104-38.208 93.248-61.824 153.024-61.824 59.84 0 113.856 23.616 153.088 61.824l-0.064 0.064 0.064 0.064c39.168 38.208 63.36 90.88 63.36 149.184 0 58.24-24.192 110.976-63.36 149.184l-0.128 0.128c-39.104 38.208-93.184 61.888-152.96 61.888L561.664 509.312c-13.12 0-23.872-10.432-23.872-23.296L537.792 298.112C537.792 239.808 562.048 186.944 601.28 148.8L601.28 148.8 601.28 148.8zM601.28 148.8" p-id="10631" fill="#a1a1a1"></path></svg>