<?xml version="1.0" standalone="no"?><!DOCTYPE svg PUBLIC "-//W3C//DTD SVG 1.1//EN" "http://www.w3.org/Graphics/SVG/1.1/DTD/svg11.dtd"><svg t="1501656757693" class="icon" style="" viewBox="0 0 1024 1024" version="1.1" xmlns="http://www.w3.org/2000/svg" p-id="17630" xmlns:xlink="http://www.w3.org/1999/xlink" width="16" height="16"><defs><style type="text/css"></style></defs><path d="M686.5 316.9c21.3 0 39.8-17.3 39.8-38.6V102.7c0-21.3-18.5-38.7-39.8-38.7-21.3 0-38.6 17.3-38.6 38.7v175.6c0 21.3 17.2 38.6 38.6 38.6z m-77.1-155.6H414v58.4h195.4v-58.4z m228.6 0h-72.6v58h75.4c22.2 0 40.9 18.8 40.9 41v135.1h-740V260.3c0-22.2 18.7-41 40.9-41h75.9v-58H186c-56.2 0-102.2 46.1-102.2 102.4v593.9C83.7 913.9 128 960 184.3 960H838c56.2 0 102.2-46.1 102.2-102.4V263.7c0.1-56.3-45.9-102.4-102.2-102.4z m43.7 699.3c0 22.2-18.7 41-40.9 41H182.6c-22.2 0-40.9-18.8-40.9-41v-407h740.1v407h-0.1z m-585-231.8c32.4 0 58.6-26.3 58.6-58.7 0-32.4-26.2-58.7-58.6-58.7-32.3 0-58.6 26.3-58.6 58.7 0 32.4 26.2 58.7 58.6 58.7z m214.5 0c32.3 0 58.6-26.3 58.6-58.7 0-32.4-26.2-58.7-58.6-58.7-32.4 0-58.6 26.3-58.6 58.7 0 32.4 26.2 58.7 58.6 58.7zM295.6 843.4c32.4 0 58.6-26.3 58.6-58.7 0-32.4-26.2-58.7-58.6-58.7-32.3 0-58.6 26.3-58.6 58.7 0.1 32.4 26.3 58.7 58.6 58.7z m215.6 0c32.3 0 58.6-26.3 58.6-58.7 0-32.4-26.2-58.7-58.6-58.7-32.4 0-58.6 26.3-58.6 58.7 0 32.4 26.2 58.7 58.6 58.7z m214.2-214.6c32.3 0 58.6-26.3 58.6-58.7 0-32.4-26.2-58.7-58.6-58.7-32.4 0-58.6 26.3-58.6 58.7 0 32.4 26.2 58.7 58.6 58.7zM335.8 316.9c21.3 0 39.8-17.3 39.8-38.6V102.7c0-21.3-18.5-38.7-39.8-38.7-21.3 0-38.6 17.3-38.6 38.7v175.6c0 21.3 17.3 38.6 38.6 38.6z" p-id="17631" fill="#a1a1a1"></path></svg>