<?xml version="1.0" standalone="no"?><!DOCTYPE svg PUBLIC "-//W3C//DTD SVG 1.1//EN" "http://www.w3.org/Graphics/SVG/1.1/DTD/svg11.dtd"><svg t="1501683772786" class="icon" style="" viewBox="0 0 1024 1024" version="1.1" xmlns="http://www.w3.org/2000/svg" p-id="22284" xmlns:xlink="http://www.w3.org/1999/xlink" width="18" height="18"><defs><style type="text/css"></style></defs><path d="M742.844575 631.975489c0 37.625946-19.615757 98.957803-65.967434 98.957803-46.403866 0-66.020646-61.331857-66.020646-98.957803 0-37.572734 19.61678-98.953709 66.020646-98.953709C723.228819 533.021779 742.844575 594.402755 742.844575 631.975489L742.844575 631.975489zM347.125929 533.021779c-46.350654 0-65.971527 61.380976-65.971527 98.953709 0 37.625946 19.620873 98.957803 65.971527 98.957803 46.350654 0 65.968457-61.331857 65.968457-98.957803C413.094386 594.402755 393.476583 533.021779 347.125929 533.021779L347.125929 533.021779zM940.705945 541.294187c0 57.242725-5.64558 118.020974-31.419594 170.57491C841.246723 849.457732 654.231375 862.823134 520.273431 862.823134c-136.028093 0-334.391906-11.803837-405.004127-150.95506-26.326599-52.049446-31.976272-113.332185-31.976272-170.57491 0-75.252915 20.630876-146.314367 70.104661-204.01451-9.280364-28.345582-13.915941-58.253752-13.915941-87.656409 0-38.635949 8.724709-77.219709 26.276457-112.323205 81.400938 0 133.451408 35.557844 195.285708 83.977623 52.05047-12.359492 105.613386-18.005073 159.229514-18.005073 48.415686 0 97.392144 5.191232 144.298454 16.491603 61.327764-47.916313 113.328092-82.464153 193.724143-82.464153 17.550725 35.054377 26.276457 73.687256 26.276457 112.323205 0 29.40368-4.63967 58.754149-13.920034 86.597287C920.129304 394.423141 940.705945 466.041272 940.705945 541.294187L940.705945 541.294187zM825.25961 631.975489c0-78.82937-47.863101-148.382469-131.888819-148.382469-33.996279 0-66.425875 6.205329-100.470249 10.846022-26.784016 4.133134-53.562916 5.64558-80.898495 5.64558-27.340695 0-54.119595-1.512447-80.902588-5.64558-33.488719-4.640694-66.474994-10.846022-100.467179-10.846022-83.9766 0-131.888819 69.553099-131.888819 148.382469 0 157.663856 144.245242 181.876304 269.981944 181.876304l86.597287 0C681.06451 813.900911 825.25961 789.639345 825.25961 631.975489L825.25961 631.975489zM825.25961 631.975489" p-id="22285" fill="#a1a1a1"></path></svg>