<?xml version="1.0" standalone="no"?><!DOCTYPE svg PUBLIC "-//W3C//DTD SVG 1.1//EN" "http://www.w3.org/Graphics/SVG/1.1/DTD/svg11.dtd"><svg t="1501656648021" class="icon" style="" viewBox="0 0 1024 1024" version="1.1" xmlns="http://www.w3.org/2000/svg" p-id="14412" xmlns:xlink="http://www.w3.org/1999/xlink" width="16" height="16"><defs><style type="text/css"></style></defs><path d="M751.105225 174.279564C689.763789 174.279564 640.056077 224.008015 640.056077 285.328711 640.056077 346.649407 689.763789 396.377857 751.105225 396.377857 812.42592 396.377857 862.154368 346.649407 862.154368 285.328711 862.154368 224.008015 812.42592 174.279564 751.105225 174.279564L751.105225 174.279564ZM751.105225 347.022681C717.033562 347.022681 689.411255 319.400372 689.411255 285.328711 689.411255 251.257049 717.033562 223.63474 751.105225 223.63474 785.176883 223.63474 812.799194 251.257049 812.799194 285.328711 812.799194 319.400372 785.176883 347.022681 751.105225 347.022681ZM1010.2199 149.767876 1010.2199 470.41062C1010.2199 484.03514 999.166827 495.088209 985.54231 495.088209 971.917794 495.088209 960.864721 484.03514 960.864721 470.41062L960.864721 149.767876C960.864721 108.666212 927.850671 75.569212 886.997858 75.569212L564.073993 75.569212 85.287307 564.994219C56.648862 594.254788 57.229511 641.100727 86.552293 669.531797L351.888208 926.821577C381.687951 955.708873 430.649114 956.082146 461.008768 927.651076L864.767292 551.245274C874.721276 541.954889 890.336589 542.494063 899.626978 552.468787 908.917363 562.443507 908.378189 578.058825 898.403465 587.34921L494.686421 963.713532C445.165342 1010.082513 366.238537 1009.481126 317.505485 962.241173L52.169569 704.972134C3.208405 657.483328 2.254481 579.282334 49.971397 530.48707L536.016196 33.63805C540.661389 28.889169 547.007053 26.234773 553.643042 26.234773L886.956382 26.234773C955.120444 26.214036 1010.2199 81.437916 1010.2199 149.767876Z" p-id="14413" fill="#a1a1a1"></path></svg>